<svg version="1.1" id="Layer_1" xmlns="http://www.w3.org/2000/svg" xmlns:xlink="http://www.w3.org/1999/xlink" x="0px" y="0px"
	width="80" height="80" viewBox="0 0 316 162" enable-background="new 0 0 316 162" xml:space="preserve">
<path fill="#FFFFFF" opacity="1.000000" stroke="none" 
	d="
M126.454109,163.000000 
	C125.278297,162.661423 124.589302,162.163452 123.830101,162.007645 
	C106.160713,158.381744 96.444191,148.163284 94.048759,130.345718 
	C93.430687,125.748482 93.090576,121.079239 93.074364,116.441505 
	C92.988258,91.802811 92.886620,67.162025 93.130630,42.525345 
	C93.230934,32.398785 95.176682,22.571064 102.552856,14.841686 
	C112.491951,4.426640 125.286919,2.631589 138.522461,4.568249 
	C159.230026,7.598238 169.516098,19.856384 169.825821,41.724609 
	C170.205338,68.522385 170.122696,95.332581 169.750259,122.130608 
	C169.666473,128.158768 168.200943,134.377289 166.251236,140.128372 
	C161.501923,154.137482 150.649170,160.615677 136.258057,162.713425 
	C132.969406,163.000000 129.938812,163.000000 126.454109,163.000000 
M123.965187,93.500000 
	C123.973915,102.983704 123.902855,112.468620 124.045982,121.950294 
	C124.082993,124.402481 124.177658,127.213402 125.363907,129.187790 
	C126.556793,131.173248 129.238937,133.632767 131.093643,133.496948 
	C133.293121,133.335876 135.807327,130.970413 137.235687,128.904022 
	C138.316681,127.340149 138.125641,124.747383 138.130051,122.611732 
	C138.185043,95.990868 138.179947,69.369858 138.158157,42.748909 
	C138.156799,41.095856 138.412643,39.107166 137.620483,37.868118 
	C136.405548,35.967743 134.434143,33.353340 132.691559,33.281593 
	C130.348068,33.185108 127.099518,34.627167 125.743317,36.498642 
	C124.260223,38.545212 124.070831,41.830631 124.045723,44.582748 
	C123.900002,60.554081 123.968834,76.527374 123.965187,93.500000 
z"/>
<path fill="#83C4AA" opacity="1.000000" stroke="none" 
	d="
M75.531342,1.000000 
	C75.949989,29.256506 75.876556,57.512997 75.856903,85.769524 
	C75.839226,111.202072 75.880539,136.634659 75.947914,162.533615 
	C51.035091,163.000000 26.070185,163.000000 1.052638,163.000000 
	C1.052638,109.110939 1.052638,55.221806 1.052638,1.000000 
	C25.686565,1.000000 50.374622,1.000000 75.531342,1.000000 
M36.187889,86.050705 
	C35.260216,85.981255 34.332542,85.911804 33.404873,85.842354 
	C41.823692,83.863525 50.297867,82.541779 58.703732,80.875412 
	C59.962723,80.625832 61.551521,78.919991 61.870583,77.614731 
	C62.972443,73.107101 61.244076,70.572815 56.245453,70.030708 
	C48.893356,69.233383 41.599873,67.895622 34.281418,66.788078 
	C42.303761,65.935234 50.261520,65.825790 58.214001,65.983246 
	C61.966118,66.057526 62.120945,63.856598 62.016747,61.126694 
	C61.922253,58.650928 62.487232,55.987957 58.501156,56.012028 
	C44.189167,56.098465 29.874933,55.960400 15.566316,56.196339 
	C14.347956,56.216423 12.702075,58.179920 12.096085,59.599674 
	C11.494486,61.009140 11.951746,62.872337 11.951905,64.536552 
	C11.952641,72.263420 11.964881,72.160965 19.901165,73.039207 
	C25.681440,73.678856 31.426800,74.634003 37.187725,75.448486 
	C32.171574,77.220932 27.177153,77.889809 22.216099,78.750908 
	C11.175168,80.667320 11.262524,80.702019 11.899581,92.126724 
	C12.052987,94.877823 12.996281,95.980377 15.759608,95.967926 
	C29.905468,95.904144 44.052544,95.856461 58.197445,95.989517 
	C62.428436,96.029320 61.920525,93.348167 62.035637,90.650948 
	C62.160904,87.715691 61.558521,85.909782 57.998440,86.002678 
	C51.013378,86.184967 44.020123,86.053215 36.187889,86.050705 
M60.134140,31.164139 
	C52.257999,30.837593 51.952957,30.845530 52.126228,37.505573 
	C52.249012,42.225014 49.542301,41.928062 46.375053,42.013420 
	C42.932297,42.106201 40.325058,41.705334 40.947220,37.262852 
	C41.458908,33.609192 40.317341,31.825890 36.087738,31.902596 
	C32.182041,31.973423 30.467970,33.105846 31.018280,37.069748 
	C31.515709,40.652748 30.147280,42.117352 26.318998,42.067837 
	C22.486490,42.018257 20.605169,40.789162 21.079018,36.844612 
	C21.516281,33.204628 20.084427,31.915648 16.320467,31.871733 
	C12.082412,31.822287 11.808680,34.049683 11.924515,37.231529 
	C12.057734,40.890900 12.050628,44.561699 11.931326,48.221889 
	C11.840026,51.022964 13.038592,52.041267 15.788774,52.027744 
	C29.945375,51.958145 44.102901,52.039951 58.258728,51.914257 
	C59.463089,51.903564 61.698582,50.751728 61.695507,50.138836 
	C61.664291,43.912739 61.267250,37.688480 60.134140,31.164139 
M26.775833,117.938835 
	C24.108606,117.922485 21.637438,118.225029 20.739470,114.385818 
	C20.460009,113.190987 16.944773,112.301834 14.861608,112.189995 
	C13.959784,112.141579 12.180067,114.367256 12.096502,115.644821 
	C11.771976,120.606308 11.767326,125.616081 12.117497,130.574417 
	C12.201364,131.761963 14.121381,133.747940 15.179665,133.736725 
	C17.117073,133.716202 20.600479,132.650772 20.701618,131.722717 
	C21.138941,127.709946 23.594769,127.940506 26.349375,127.949348 
	C36.813484,127.982925 47.280045,127.835732 57.740799,128.025497 
	C61.526611,128.094193 62.087322,126.296494 62.067268,123.142792 
	C62.046894,119.938408 61.802841,117.767212 57.613750,117.866249 
	C47.653416,118.101715 37.683697,117.940132 26.775833,117.938835 
M38.499969,109.940933 
	C44.975952,109.939430 51.457565,109.774315 57.925846,109.996750 
	C61.912483,110.133850 62.042587,107.883537 62.052441,104.932266 
	C62.062408,101.947433 61.842209,99.852409 57.893269,99.899826 
	C43.946987,100.067276 29.996307,100.064529 16.049908,99.902016 
	C12.086720,99.855827 11.916176,102.000938 11.903140,104.962715 
	C11.889937,107.962608 12.149430,110.113785 16.081196,109.996994 
	C23.215057,109.785072 30.359795,109.939316 38.499969,109.940933 
z"/>
<path fill="#FFFFFF" opacity="1.000000" stroke="none" 
	d="
M317.000000,35.531342 
	C308.010193,35.975342 299.019043,36.032413 290.031403,35.879894 
	C287.049042,35.829285 285.849457,36.802380 285.946228,39.887829 
	C286.123566,45.542957 286.129578,51.211975 285.944397,56.866604 
	C285.841034,60.023285 287.188629,60.880642 290.096344,60.828690 
	C297.086670,60.703785 304.082611,60.885803 311.072632,60.752956 
	C314.096191,60.695496 315.205261,61.838020 315.145721,64.849861 
	C315.007538,71.839737 314.942383,78.839401 315.168335,85.824730 
	C315.287781,89.516586 313.653290,90.324615 310.386658,90.240417 
	C303.897858,90.073166 297.390747,90.420029 290.912476,90.110016 
	C286.821411,89.914253 285.889954,91.490356 285.919647,95.298233 
	C286.076691,115.442421 285.886993,135.589508 286.080475,155.733047 
	C286.119995,159.847412 284.993622,161.285431 280.783936,161.085464 
	C273.973175,160.761887 267.121124,160.726486 260.314911,161.094788 
	C255.824402,161.337769 254.724533,159.781662 254.741943,155.446808 
	C254.897766,116.655029 254.832611,77.862366 254.832718,39.069965 
	C254.832733,29.579979 254.966446,20.087202 254.767303,10.601408 
	C254.689819,6.910446 255.924164,5.683876 259.632416,5.717290 
	C278.444031,5.886798 297.257629,5.835963 316.535278,5.931167 
	C317.000000,15.687561 317.000000,25.375122 317.000000,35.531342 
z"/>
<path fill="#FFFFFF" opacity="1.000000" stroke="none" 
	d="
M243.003479,73.011810 
	C243.002182,78.009056 242.885208,82.512718 243.041611,87.006851 
	C243.140320,89.843750 242.005539,90.850677 239.240646,90.807320 
	C232.576218,90.702820 225.899994,90.986519 219.246155,90.701866 
	C215.137817,90.526115 213.775421,91.836105 213.815994,96.040062 
	C214.007385,115.869926 213.766037,135.704269 214.003494,155.533127 
	C214.057022,160.002777 212.727936,161.302399 208.351822,161.096985 
	C201.035172,160.753555 193.687241,160.868729 186.359604,161.061462 
	C183.046692,161.148590 182.071213,159.929398 182.076035,156.717422 
	C182.149399,107.721550 182.153015,58.725498 182.074371,9.729647 
	C182.068634,6.160607 183.492981,5.135269 186.835846,5.153164 
	C204.667191,5.248624 222.499680,5.257621 240.330887,5.149592 
	C243.843979,5.128309 245.005188,6.491970 244.928162,9.894026 
	C244.762222,17.223009 244.779541,24.560226 244.922714,31.890150 
	C244.981445,34.897873 243.939743,36.035748 240.879227,35.974403 
	C233.382889,35.824146 225.877045,36.080730 218.384003,35.863575 
	C214.830536,35.760597 213.698746,37.056423 213.845535,40.495213 
	C214.065674,45.652088 214.047882,50.830677 213.853485,55.989567 
	C213.727341,59.337337 215.126785,60.308983 218.285660,60.249996 
	C226.247620,60.101322 234.214203,60.200768 243.003479,60.200768 
	C243.003479,64.667282 243.003479,68.590736 243.003479,73.011810 
z"/>
<path fill="#FFFFFF" opacity="1.000000" stroke="none" 
	d="
M36.609074,86.051056 
	C44.020123,86.053215 51.013378,86.184967 57.998440,86.002678 
	C61.558521,85.909782 62.160904,87.715691 62.035637,90.650948 
	C61.920525,93.348167 62.428436,96.029320 58.197445,95.989517 
	C44.052544,95.856461 29.905468,95.904144 15.759608,95.967926 
	C12.996281,95.980377 12.052987,94.877823 11.899581,92.126724 
	C11.262524,80.702019 11.175168,80.667320 22.216099,78.750908 
	C27.177153,77.889809 32.171574,77.220932 37.187725,75.448486 
	C31.426800,74.634003 25.681440,73.678856 19.901165,73.039207 
	C11.964881,72.160965 11.952641,72.263420 11.951905,64.536552 
	C11.951746,62.872337 11.494486,61.009140 12.096085,59.599674 
	C12.702075,58.179920 14.347956,56.216423 15.566316,56.196339 
	C29.874933,55.960400 44.189167,56.098465 58.501156,56.012028 
	C62.487232,55.987957 61.922253,58.650928 62.016747,61.126694 
	C62.120945,63.856598 61.966118,66.057526 58.214001,65.983246 
	C50.261520,65.825790 42.303761,65.935234 34.281418,66.788078 
	C41.599873,67.895622 48.893356,69.233383 56.245453,70.030708 
	C61.244076,70.572815 62.972443,73.107101 61.870583,77.614731 
	C61.551521,78.919991 59.962723,80.625832 58.703732,80.875412 
	C50.297867,82.541779 41.823692,83.863525 33.404873,85.842354 
	C34.332542,85.911804 35.260216,85.981255 36.609074,86.051056 
z"/>
<path fill="#FFFFFF" opacity="1.000000" stroke="none" 
	d="
M60.553425,31.313923 
	C61.267250,37.688480 61.664291,43.912739 61.695507,50.138836 
	C61.698582,50.751728 59.463089,51.903564 58.258728,51.914257 
	C44.102901,52.039951 29.945375,51.958145 15.788774,52.027744 
	C13.038592,52.041267 11.840026,51.022964 11.931326,48.221889 
	C12.050628,44.561699 12.057734,40.890900 11.924515,37.231529 
	C11.808680,34.049683 12.082412,31.822287 16.320467,31.871733 
	C20.084427,31.915648 21.516281,33.204628 21.079018,36.844612 
	C20.605169,40.789162 22.486490,42.018257 26.318998,42.067837 
	C30.147280,42.117352 31.515709,40.652748 31.018280,37.069748 
	C30.467970,33.105846 32.182041,31.973423 36.087738,31.902596 
	C40.317341,31.825890 41.458908,33.609192 40.947220,37.262852 
	C40.325058,41.705334 42.932297,42.106201 46.375053,42.013420 
	C49.542301,41.928062 52.249012,42.225014 52.126228,37.505573 
	C51.952957,30.845530 52.257999,30.837593 60.553425,31.313923 
z"/>
<path fill="#FFFFFF" opacity="1.000000" stroke="none" 
	d="
M27.246799,117.938904 
	C37.683697,117.940132 47.653416,118.101715 57.613750,117.866249 
	C61.802841,117.767212 62.046894,119.938408 62.067268,123.142792 
	C62.087322,126.296494 61.526611,128.094193 57.740799,128.025497 
	C47.280045,127.835732 36.813484,127.982925 26.349375,127.949348 
	C23.594769,127.940506 21.138941,127.709946 20.701618,131.722717 
	C20.600479,132.650772 17.117073,133.716202 15.179665,133.736725 
	C14.121381,133.747940 12.201364,131.761963 12.117497,130.574417 
	C11.767326,125.616081 11.771976,120.606308 12.096502,115.644821 
	C12.180067,114.367256 13.959784,112.141579 14.861608,112.189995 
	C16.944773,112.301834 20.460009,113.190987 20.739470,114.385818 
	C21.637438,118.225029 24.108606,117.922485 27.246799,117.938904 
z"/>
<path fill="#FFFFFF" opacity="1.000000" stroke="none" 
	d="
M37.999981,109.940826 
	C30.359795,109.939316 23.215057,109.785072 16.081196,109.996994 
	C12.149430,110.113785 11.889937,107.962608 11.903140,104.962715 
	C11.916176,102.000938 12.086720,99.855827 16.049908,99.902016 
	C29.996307,100.064529 43.946987,100.067276 57.893269,99.899826 
	C61.842209,99.852409 62.062408,101.947433 62.052441,104.932266 
	C62.042587,107.883537 61.912483,110.133850 57.925846,109.996750 
	C51.457565,109.774315 44.975952,109.939430 37.999981,109.940826 
z"/>
</svg>