<svg version="1.1" id="Layer_1" xmlns="http://www.w3.org/2000/svg" xmlns:xlink="http://www.w3.org/1999/xlink" x="0px" y="0px"
	 width="100%" viewBox="0 0 512 512" enable-background="new 0 0 512 512" xml:space="preserve">
<path fill="#959595" opacity="1.000000" stroke="none" 
	d="
M390.901245,299.010986 
	C393.323273,304.626038 395.745300,310.241089 398.004486,316.569458 
	C396.216766,317.855072 394.550934,319.006226 392.974365,318.894714 
	C387.544647,318.510712 382.149994,317.651031 376.734894,317.034790 
	C358.674561,314.979370 340.627075,312.793976 322.544373,310.956451 
	C304.455475,309.118256 286.358154,307.014893 268.211884,306.199036 
	C253.809021,305.551514 239.322968,306.566986 224.881622,307.067810 
	C220.109970,307.233246 215.355225,308.040070 210.605469,308.652435 
	C199.626343,310.067993 188.669144,311.663544 177.676773,312.964081 
	C164.875748,314.478668 152.057495,315.867920 139.227020,317.107635 
	C124.586411,318.522339 109.924332,319.714996 95.271072,320.998230 
	C91.318436,321.344360 87.256340,321.217957 83.439949,322.128082 
	C79.468834,323.075073 76.105865,323.101593 73.161148,320.011230 
	C72.394287,314.327271 71.627434,308.643341 71.316406,302.502716 
	C74.892136,302.364044 78.033318,303.085297 81.127838,302.921997 
	C89.374527,302.486877 97.600319,301.129517 105.835907,301.117004 
	C124.259674,301.089020 142.486755,299.144073 160.759552,297.124451 
	C177.678070,295.254486 194.687485,294.085876 211.684967,293.085754 
	C228.723450,292.083221 245.792557,291.470886 262.857147,291.120087 
	C268.079193,291.012787 273.314178,292.696442 278.571503,292.934082 
	C297.124634,293.772736 315.708221,294.032684 334.243622,295.130524 
	C344.602844,295.744141 354.860809,297.963715 365.218353,298.741180 
	C373.738068,299.380676 382.337280,298.961151 390.901245,299.010986 
z"/>
<path fill="#8B8B8B" opacity="1.000000" stroke="none" 
	d="
M390.910034,298.622498 
	C382.337280,298.961151 373.738068,299.380676 365.218353,298.741180 
	C354.860809,297.963715 344.602844,295.744141 334.243622,295.130524 
	C315.708221,294.032684 297.124634,293.772736 278.571503,292.934082 
	C273.314178,292.696442 268.079193,291.012787 262.857147,291.120087 
	C245.792557,291.470886 228.723450,292.083221 211.684967,293.085754 
	C194.687485,294.085876 177.678070,295.254486 160.759552,297.124451 
	C142.486755,299.144073 124.259674,301.089020 105.835907,301.117004 
	C97.600319,301.129517 89.374527,302.486877 81.127838,302.921997 
	C78.033318,303.085297 74.892136,302.364044 71.343529,302.056946 
	C70.914825,302.067810 70.968140,302.037567 70.888565,301.848267 
	C70.661873,301.369873 70.439392,301.160980 70.141541,301.032379 
	C69.696091,295.322876 69.250633,289.613342 69.283157,283.438354 
	C72.802574,281.640717 75.844002,280.308563 79.366806,278.984924 
	C99.900070,278.251404 119.955864,280.079742 140.047729,277.263580 
	C154.258057,275.271729 168.803070,275.655975 183.200058,275.010132 
	C205.876068,273.992859 228.554810,273.033356 251.225861,271.916656 
	C252.535477,271.852173 253.786560,270.599365 255.442566,269.923035 
	C257.539551,270.311676 259.258850,270.676910 261.197815,271.308411 
	C269.608673,274.723297 277.799927,277.871887 286.231628,281.294800 
	C318.953949,292.565033 351.892090,295.598022 385.529297,287.763672 
	C384.979218,282.160095 384.480225,277.076843 383.987488,271.540039 
	C383.991852,268.056427 383.989960,265.026398 384.001190,261.644043 
	C384.330933,258.526154 384.647552,255.760559 385.023010,252.632477 
	C385.365356,250.841354 385.648865,249.412720 385.969177,247.592407 
	C386.996277,243.465714 387.986542,239.730728 389.123352,235.689270 
	C389.818604,233.918335 390.367340,232.453842 391.074158,230.675217 
	C392.566345,227.349335 393.900452,224.337601 395.478455,221.086639 
	C397.454926,218.886185 399.187500,216.924973 400.920074,214.963745 
	C397.934113,221.393082 394.502197,227.656982 392.044495,234.282288 
	C384.207458,255.408798 384.310730,276.793152 390.910034,298.622498 
z"/>
<path fill="#C0C0C0" opacity="1.000000" stroke="none" 
	d="
M401.067566,214.859543 
	C399.187500,216.924973 397.454926,218.886185 395.180176,220.737259 
	C392.850525,220.417877 391.057556,219.990433 389.276489,220.035385 
	C378.994904,220.294922 368.717682,220.728989 358.436035,220.984711 
	C342.830505,221.372849 327.223175,221.696014 311.615479,221.987106 
	C291.847321,222.355789 272.077057,222.616318 252.309631,223.018295 
	C241.195389,223.244293 230.085556,223.680511 218.972778,223.987213 
	C206.030060,224.344452 193.086365,224.667038 180.142929,224.998444 
	C167.033249,225.334106 153.924530,225.721817 140.813278,225.979645 
	C121.045547,226.368362 101.276329,226.691055 81.506516,226.946762 
	C79.967079,226.966690 78.417992,226.240814 76.892151,225.469452 
	C78.238297,221.323196 79.565697,217.569046 81.134064,214.100830 
	C89.446648,213.924530 97.512810,213.279800 105.591019,213.039032 
	C121.207764,212.573532 136.830994,212.320251 152.452103,212.007782 
	C170.071930,211.655319 187.693146,211.369339 205.312317,210.988251 
	C217.935104,210.715256 230.554260,210.158249 243.177490,210.067429 
	C250.464111,210.015015 257.765625,211.035980 265.042297,210.853119 
	C273.967407,210.628860 282.866180,209.234192 291.789276,209.076096 
	C321.902557,208.542542 352.021576,208.336121 382.138214,207.985092 
	C383.292328,207.971664 384.457672,207.578903 385.594696,207.665604 
	C391.949280,208.150162 398.296753,208.727997 404.646637,209.273956 
	C404.247894,210.028290 403.849152,210.782639 402.851135,211.775055 
	C401.942841,212.812485 401.633850,213.611862 401.324890,214.411240 
	C401.324890,214.411240 401.215088,214.755341 401.067566,214.859543 
z"/>
<path fill="#C0C0C0" opacity="1.000000" stroke="none" 
	d="
M434.521545,390.946472 
	C431.697357,395.866425 428.873169,400.786346 425.390778,405.869995 
	C418.822266,404.511353 412.747253,403.445679 407.031067,401.384796 
	C386.133118,393.850464 365.345398,386.009460 344.533875,378.236603 
	C321.956909,369.804413 299.043121,362.500031 274.809387,361.142273 
	C255.386398,360.054108 235.801590,360.328949 216.783173,364.507233 
	C202.080826,367.737305 187.724274,372.824066 173.506439,377.903839 
	C156.467438,383.991547 139.811096,391.143372 122.836830,397.422974 
	C117.003624,399.580963 110.712471,400.501068 104.630524,401.986694 
	C102.124420,397.559052 99.618317,393.131439 97.528671,388.352417 
	C100.257957,387.846558 102.688354,388.098511 104.863853,387.469269 
	C116.006973,384.246216 127.111931,380.883698 138.178375,377.404938 
	C154.781754,372.185699 171.295258,366.677094 187.931320,361.566010 
	C214.311447,353.461304 241.356949,350.137634 268.921417,351.032288 
	C272.053009,351.133942 275.182770,351.578064 278.292603,352.012177 
	C288.929749,353.497192 299.777191,354.172852 310.139679,356.771362 
	C327.482086,361.120239 344.549591,366.591888 361.661194,371.825043 
	C372.446777,375.123535 382.954285,379.419891 393.853363,382.236053 
	C407.264282,385.701263 420.952942,388.091583 434.521545,390.946472 
z"/>
<path fill="#C8C8C8" opacity="1.000000" stroke="none" 
	d="
M404.948334,209.143463 
	C398.296753,208.727997 391.949280,208.150162 385.594696,207.665604 
	C384.457672,207.578903 383.292328,207.971664 382.138214,207.985092 
	C352.021576,208.336121 321.902557,208.542542 291.789276,209.076096 
	C282.866180,209.234192 273.967407,210.628860 265.042297,210.853119 
	C257.765625,211.035980 250.464111,210.015015 243.177490,210.067429 
	C230.554260,210.158249 217.935104,210.715256 205.312317,210.988251 
	C187.693146,211.369339 170.071930,211.655319 152.452103,212.007782 
	C136.830994,212.320251 121.207764,212.573532 105.591019,213.039032 
	C97.512810,213.279800 89.446648,213.924530 81.174446,213.742859 
	C82.576889,209.717957 84.179932,206.336960 86.186554,202.931625 
	C90.818115,202.271561 95.033257,201.201279 99.276283,201.076111 
	C116.703217,200.561966 134.137909,200.289902 151.571091,200.014084 
	C175.493057,199.635544 199.416870,199.375046 223.338638,198.985550 
	C239.023285,198.730164 254.706039,198.351578 270.389038,198.001022 
	C299.762024,197.344437 329.134094,196.647385 358.507477,196.008011 
	C375.438324,195.639465 392.370453,195.260254 409.303497,195.173935 
	C410.901306,195.165787 412.509613,197.224731 414.113098,198.323975 
	C411.158722,201.886978 408.204376,205.449966 404.948334,209.143463 
z"/>
<path fill="#CECECE" opacity="1.000000" stroke="none" 
	d="
M414.466064,198.258255 
	C412.509613,197.224731 410.901306,195.165787 409.303497,195.173935 
	C392.370453,195.260254 375.438324,195.639465 358.507477,196.008011 
	C329.134094,196.647385 299.762024,197.344437 270.389038,198.001022 
	C254.706039,198.351578 239.023285,198.730164 223.338638,198.985550 
	C199.416870,199.375046 175.493057,199.635544 151.571091,200.014084 
	C134.137909,200.289902 116.703217,200.561966 99.276283,201.076111 
	C95.033257,201.201279 90.818115,202.271561 86.285995,202.583527 
	C86.631577,200.483704 87.281311,198.707611 87.931046,196.931534 
	C87.931046,196.931534 88.000969,196.997177 88.294182,196.901871 
	C89.027466,195.841431 89.467545,194.876312 89.907623,193.911179 
	C89.907616,193.911179 90.001511,193.995483 90.275024,193.900177 
	C91.684517,192.497650 92.820496,191.190460 94.240707,190.194992 
	C96.159599,190.671356 97.799072,191.015121 99.428146,190.971436 
	C109.710762,190.695648 119.990425,190.312225 130.272308,190.006317 
	C142.217682,189.650894 154.164566,189.346710 166.110382,189.005798 
	C189.336761,188.342987 212.560471,187.567307 235.789749,187.031921 
	C256.556854,186.553284 277.329102,186.261108 298.100616,186.018738 
	C332.023682,185.622879 365.947845,185.324020 399.871796,185.009506 
	C406.531128,184.947754 413.201782,184.782349 419.846924,185.095871 
	C423.005524,185.244888 426.116302,186.407562 429.248749,187.111038 
	C424.438843,190.804871 419.628967,194.498703 414.466064,198.258255 
z"/>
<path fill="#9D9D9D" opacity="1.000000" stroke="none" 
	d="
M73.105423,320.397949 
	C76.105865,323.101593 79.468834,323.075073 83.439949,322.128082 
	C87.256340,321.217957 91.318436,321.344360 95.271072,320.998230 
	C109.924332,319.714996 124.586411,318.522339 139.227020,317.107635 
	C152.057495,315.867920 164.875748,314.478668 177.676773,312.964081 
	C188.669144,311.663544 199.626343,310.067993 210.605469,308.652435 
	C215.355225,308.040070 220.109970,307.233246 224.881622,307.067810 
	C239.322968,306.566986 253.809021,305.551514 268.211884,306.199036 
	C286.358154,307.014893 304.455475,309.118256 322.544373,310.956451 
	C340.627075,312.793976 358.674561,314.979370 376.734894,317.034790 
	C382.149994,317.651031 387.544647,318.510712 392.974365,318.894714 
	C394.550934,319.006226 396.216766,317.855072 398.078247,316.898834 
	C401.251434,320.730988 404.187988,324.947052 406.908630,329.696838 
	C405.236786,330.813354 403.699799,332.045807 402.337982,331.875671 
	C391.865723,330.567566 381.414703,329.070526 370.982147,327.468933 
	C359.725555,325.740845 348.530365,323.578705 337.245697,322.076782 
	C324.644867,320.399658 311.988281,319.094269 299.329346,317.912109 
	C282.063599,316.299713 264.840515,314.096252 247.394104,315.907227 
	C231.124634,317.596039 214.747910,318.278351 198.494431,320.086975 
	C182.267593,321.892609 166.131409,324.520477 149.962997,326.840179 
	C143.100433,327.824738 136.276733,329.100983 129.399597,329.957428 
	C121.864639,330.895721 114.143188,330.828217 106.765274,332.416931 
	C96.498291,334.627747 86.386963,334.385651 76.155228,333.005615 
	C75.120049,328.931976 74.084869,324.858307 73.105423,320.397949 
z"/>
<path fill="#F9F9F9" opacity="1.000000" stroke="none" 
	d="
M327.998993,475.973877 
	C321.114685,473.367767 314.116547,471.025146 307.366577,468.108124 
	C283.147919,457.641968 258.650726,456.853455 233.793533,465.493317 
	C222.340042,469.474304 211.054092,474.044891 199.395737,477.279724 
	C194.197723,478.722046 188.268188,477.527924 182.589554,476.995544 
	C188.600800,476.935577 191.980148,472.625671 194.572983,468.451447 
	C202.278503,456.046234 212.462021,446.358673 224.682877,438.594910 
	C244.427887,426.051208 265.021667,425.046997 285.802704,435.139313 
	C293.291809,438.776367 300.604248,443.704498 306.443115,449.586334 
	C314.407227,457.609039 320.884338,467.107910 327.998993,475.973877 
z"/>
<path fill="#DADADA" opacity="1.000000" stroke="none" 
	d="
M98.721527,182.903549 
	C102.208344,178.900467 105.695168,174.897385 109.764648,171.102112 
	C112.128868,171.540146 113.914909,171.998993 115.691292,171.964264 
	C129.317032,171.697952 142.940430,171.315582 156.565430,171.007294 
	C186.647217,170.326584 216.729324,169.658661 246.811707,169.004532 
	C263.102264,168.650269 279.392853,168.284988 295.684906,168.014282 
	C318.641571,167.632828 341.600464,167.384476 364.556763,166.984070 
	C381.514465,166.688293 398.469513,166.240662 415.425751,165.860687 
	C419.246002,168.990479 423.066254,172.120285 426.715698,175.869293 
	C424.609589,176.442245 422.672150,176.312500 420.739349,176.362579 
	C400.318359,176.891647 379.899780,177.523605 359.477203,177.977768 
	C340.029816,178.410278 320.578705,178.681793 301.128754,178.994263 
	C279.180542,179.346863 257.228699,179.532318 235.284134,180.038406 
	C214.206177,180.524506 193.139282,181.507751 172.060730,181.944458 
	C147.618195,182.450821 123.168251,182.599564 98.721527,182.903549 
z"/>
<path fill="#D4D4D4" opacity="1.000000" stroke="none" 
	d="
M125.628166,434.126038 
	C123.413544,431.107880 121.198921,428.089722 119.063309,424.396301 
	C119.767113,423.203552 120.312988,422.497192 121.028984,422.198120 
	C127.601616,419.452698 134.333054,417.053314 140.772446,414.029633 
	C158.345047,405.778198 175.560837,396.726868 193.350525,388.986542 
	C225.047241,375.195251 257.974365,371.457123 292.009521,378.790009 
	C319.468506,384.706085 344.220276,397.353363 368.964996,409.817780 
	C382.634827,416.703583 396.214020,423.432404 411.150085,427.047729 
	C408.367676,430.988953 405.585297,434.930145 402.054077,438.945984 
	C397.558380,437.825867 393.499817,437.198883 390.116608,435.341614 
	C372.079254,425.439789 354.425171,414.823517 336.227539,405.234253 
	C315.421295,394.270355 293.544037,386.714722 269.726379,384.666809 
	C256.636963,383.541351 243.820389,384.342346 231.227173,386.673676 
	C214.727478,389.728210 198.917160,395.656006 184.065353,403.570831 
	C170.600037,410.746704 157.619171,418.828217 144.201843,426.099152 
	C138.295212,429.299957 131.836319,431.481659 125.628166,434.126038 
z"/>
<path fill="#A3A3A3" opacity="1.000000" stroke="none" 
	d="
M76.165680,333.380280 
	C86.386963,334.385651 96.498291,334.627747 106.765274,332.416931 
	C114.143188,330.828217 121.864639,330.895721 129.399597,329.957428 
	C136.276733,329.100983 143.100433,327.824738 149.962997,326.840179 
	C166.131409,324.520477 182.267593,321.892609 198.494431,320.086975 
	C214.747910,318.278351 231.124634,317.596039 247.394104,315.907227 
	C264.840515,314.096252 282.063599,316.299713 299.329346,317.912109 
	C311.988281,319.094269 324.644867,320.399658 337.245697,322.076782 
	C348.530365,323.578705 359.725555,325.740845 370.982147,327.468933 
	C381.414703,329.070526 391.865723,330.567566 402.337982,331.875671 
	C403.699799,332.045807 405.236786,330.813354 407.033783,330.017273 
	C411.114136,333.688965 414.853394,337.573883 418.470459,341.972656 
	C415.802399,343.306396 413.078339,345.174438 410.739441,344.776886 
	C395.108795,342.120026 379.586151,338.836029 363.977966,336.037018 
	C348.036163,333.178131 332.089447,330.252350 316.047424,328.073364 
	C300.165741,325.916138 284.194550,324.066376 268.201935,323.193848 
	C256.300537,322.544556 244.292526,323.474640 232.350616,324.073120 
	C224.427811,324.470245 216.478409,325.142853 208.646149,326.365906 
	C194.113678,328.635284 179.654648,331.377655 165.171585,333.959808 
	C147.448120,337.119751 129.761993,340.503265 112.000183,343.428619 
	C101.485817,345.160309 90.930138,347.129547 80.158020,346.005981 
	C78.830727,341.922302 77.503426,337.838623 76.165680,333.380280 
z"/>
<path fill="#EEEEEE" opacity="1.000000" stroke="none" 
	d="
M168.916748,473.205933 
	C162.720673,469.341675 156.524612,465.477448 150.589447,461.312500 
	C152.750870,460.639801 155.063843,460.833008 156.481155,459.798798 
	C162.894745,455.118713 169.280945,450.350677 175.260300,445.136414 
	C188.054977,433.978790 201.076248,423.174927 216.932510,416.579285 
	C235.745834,408.753632 254.705551,403.480225 275.621277,408.519592 
	C297.963562,413.902679 317.295959,424.154114 334.647247,438.990601 
	C346.459656,449.091064 358.952911,458.395294 371.141754,468.055542 
	C365.725433,470.795227 360.309113,473.534912 354.318726,475.963623 
	C349.491089,472.250122 345.002502,469.099762 341.029236,465.396454 
	C330.375916,455.466919 320.259155,444.942291 309.343109,435.318909 
	C295.620422,423.221313 277.931976,420.279327 260.905853,416.165253 
	C258.385498,415.556244 255.401459,416.661194 252.672791,417.185699 
	C250.570358,417.589844 248.524185,418.301392 246.466599,418.921356 
	C238.585220,421.296173 230.288879,422.790680 222.910065,426.243530 
	C200.543182,436.709839 184.821625,455.131592 168.916748,473.205933 
z"/>
<path fill="#CECECE" opacity="1.000000" stroke="none" 
	d="
M411.476990,426.927490 
	C396.214020,423.432404 382.634827,416.703583 368.964996,409.817780 
	C344.220276,397.353363 319.468506,384.706085 292.009521,378.790009 
	C257.974365,371.457123 225.047241,375.195251 193.350525,388.986542 
	C175.560837,396.726868 158.345047,405.778198 140.772446,414.029633 
	C134.333054,417.053314 127.601616,419.452698 121.028984,422.198120 
	C120.312988,422.497192 119.767113,423.203552 118.974205,424.076294 
	C116.169792,420.552185 113.533508,416.672729 111.174202,412.301331 
	C126.424675,405.975464 141.489212,400.363129 156.351059,394.257446 
	C180.709534,384.250366 204.672607,373.555450 231.162048,369.518188 
	C251.285385,366.451172 270.920410,367.001129 290.822510,370.346100 
	C315.665436,374.521454 338.180695,385.108063 361.186554,394.507782 
	C378.812775,401.709503 396.721375,408.219177 414.481415,415.096039 
	C415.805328,415.608643 416.943878,416.599854 418.168640,417.368561 
	C416.047058,420.514801 413.925476,423.661011 411.476990,426.927490 
z"/>
<path fill="#ACACAC" opacity="1.000000" stroke="none" 
	d="
M430.331848,350.841217 
	C436.439545,354.017883 442.547211,357.194580 449.243744,360.677490 
	C448.463013,362.452332 447.564606,364.494751 445.936127,366.766418 
	C440.310608,366.330048 435.412170,365.685486 430.520233,364.994934 
	C415.343292,362.852448 400.108124,361.502991 385.199829,357.240448 
	C368.677032,352.516235 351.713226,349.335175 334.943085,345.475067 
	C307.497406,339.157684 279.884277,335.109589 251.525131,335.768677 
	C232.519028,336.210388 213.926086,338.930328 195.437485,342.505280 
	C177.579208,345.958374 159.930252,350.524078 142.241837,354.817322 
	C124.075310,359.226624 106.042839,364.319458 87.097366,364.003510 
	C85.697861,360.921326 84.298355,357.839111 83.365494,354.378357 
	C91.228828,353.344421 98.670601,353.006622 106.012337,351.964203 
	C119.207626,350.090668 132.410568,348.140625 145.485779,345.585358 
	C161.226624,342.509186 176.715851,337.989532 192.536255,335.516479 
	C211.455963,332.558929 230.573822,330.603607 249.678253,329.198303 
	C260.214722,328.423248 270.918488,329.378815 281.512238,330.078064 
	C292.064606,330.774597 302.720276,331.360809 313.072754,333.342621 
	C338.236053,338.159729 363.223877,343.885925 388.336365,348.979797 
	C398.343689,351.009735 408.461792,352.588959 418.593750,353.861969 
	C422.631561,354.369293 427.349854,355.387543 430.331848,350.841217 
z"/>
<path fill="#C8C8C8" opacity="1.000000" stroke="none" 
	d="
M418.458710,417.174805 
	C416.943878,416.599854 415.805328,415.608643 414.481415,415.096039 
	C396.721375,408.219177 378.812775,401.709503 361.186554,394.507782 
	C338.180695,385.108063 315.665436,374.521454 290.822510,370.346100 
	C270.920410,367.001129 251.285385,366.451172 231.162048,369.518188 
	C204.672607,373.555450 180.709534,384.250366 156.351059,394.257446 
	C141.489212,400.363129 126.424675,405.975464 111.085159,411.960571 
	C108.747185,408.977539 106.775215,405.843353 104.716888,402.347900 
	C110.712471,400.501068 117.003624,399.580963 122.836830,397.422974 
	C139.811096,391.143372 156.467438,383.991547 173.506439,377.903839 
	C187.724274,372.824066 202.080826,367.737305 216.783173,364.507233 
	C235.801590,360.328949 255.386398,360.054108 274.809387,361.142273 
	C299.043121,362.500031 321.956909,369.804413 344.533875,378.236603 
	C365.345398,386.009460 386.133118,393.850464 407.031067,401.384796 
	C412.747253,403.445679 418.822266,404.511353 425.151550,406.092285 
	C423.296570,409.760925 421.022675,413.370972 418.458710,417.174805 
z"/>
<path fill="#B1B1B1" opacity="1.000000" stroke="none" 
	d="
M86.998367,364.377045 
	C106.042839,364.319458 124.075310,359.226624 142.241837,354.817322 
	C159.930252,350.524078 177.579208,345.958374 195.437485,342.505280 
	C213.926086,338.930328 232.519028,336.210388 251.525131,335.768677 
	C279.884277,335.109589 307.497406,339.157684 334.943085,345.475067 
	C351.713226,349.335175 368.677032,352.516235 385.199829,357.240448 
	C400.108124,361.502991 415.343292,362.852448 430.520233,364.994934 
	C435.412170,365.685486 440.310608,366.330048 445.670593,366.993958 
	C444.722137,369.962219 443.309174,372.932190 441.067810,375.965027 
	C434.175354,375.353455 428.087341,374.843140 422.053406,373.962250 
	C414.867798,372.913208 407.599060,372.044220 400.594147,370.221619 
	C381.210297,365.178162 361.968872,359.590485 342.626587,354.383392 
	C318.925751,348.002960 294.878113,342.821533 270.335602,342.292847 
	C252.339539,341.905151 233.916306,342.163757 216.343506,345.554718 
	C185.666809,351.474426 155.534271,360.179169 125.098114,367.398071 
	C113.726700,370.095154 102.143845,371.900818 90.657410,374.112915 
	C89.404732,370.992157 88.152054,367.871368 86.998367,364.377045 
z"/>
<path fill="#E6E6E6" opacity="1.000000" stroke="none" 
	d="
M371.508240,468.063324 
	C358.952911,458.395294 346.459656,449.091064 334.647247,438.990601 
	C317.295959,424.154114 297.963562,413.902679 275.621277,408.519592 
	C254.705551,403.480225 235.745834,408.753632 216.932510,416.579285 
	C201.076248,423.174927 188.054977,433.978790 175.260300,445.136414 
	C169.280945,450.350677 162.894745,455.118713 156.481155,459.798798 
	C155.063843,460.833008 152.750870,460.639801 150.438431,461.006134 
	C147.383972,458.645294 144.741425,456.290131 142.190491,453.312500 
	C145.222977,451.230530 148.420746,450.130707 151.058319,448.246674 
	C160.365295,441.598602 169.239700,434.324341 178.719406,427.943054 
	C197.100403,415.569763 216.048569,404.386261 238.485733,400.617126 
	C262.486450,396.585297 285.436737,399.614746 307.439789,409.770416 
	C327.341766,418.956360 344.313995,432.671204 362.005585,445.306885 
	C368.935364,450.256317 376.818268,453.871246 384.267090,458.093933 
	C380.136292,461.419647 376.005524,464.745361 371.508240,468.063324 
z"/>
<path fill="#F2F2F2" opacity="1.000000" stroke="none" 
	d="
M169.100250,473.527222 
	C184.821625,455.131592 200.543182,436.709839 222.910065,426.243530 
	C230.288879,422.790680 238.585220,421.296173 246.466599,418.921356 
	C248.524185,418.301392 250.570358,417.589844 252.672791,417.185699 
	C255.401459,416.661194 258.385498,415.556244 260.905853,416.165253 
	C277.931976,420.279327 295.620422,423.221313 309.343109,435.318909 
	C320.259155,444.942291 330.375916,455.466919 341.029236,465.396454 
	C345.002502,469.099762 349.491089,472.250122 353.928711,475.955322 
	C345.688049,476.228546 337.263367,476.199036 328.418854,476.071716 
	C320.884338,467.107910 314.407227,457.609039 306.443115,449.586334 
	C300.604248,443.704498 293.291809,438.776367 285.802704,435.139313 
	C265.021667,425.046997 244.427887,426.051208 224.682877,438.594910 
	C212.462021,446.358673 202.278503,456.046234 194.572983,468.451447 
	C191.980148,472.625671 188.600800,476.935577 182.247635,476.744812 
	C177.752472,475.968719 173.518112,474.908630 169.100250,473.527222 
z"/>
<path fill="#D4D4D4" opacity="1.000000" stroke="none" 
	d="
M98.406296,182.964691 
	C123.168251,182.599564 147.618195,182.450821 172.060730,181.944458 
	C193.139282,181.507751 214.206177,180.524506 235.284134,180.038406 
	C257.228699,179.532318 279.180542,179.346863 301.128754,178.994263 
	C320.578705,178.681793 340.029816,178.410278 359.477203,177.977768 
	C379.899780,177.523605 400.318359,176.891647 420.739349,176.362579 
	C422.672150,176.312500 424.609589,176.442245 426.794983,176.201172 
	C428.529510,177.538498 430.023468,179.154617 431.496307,180.789749 
	C434.045380,183.619675 433.021179,185.567841 429.594818,187.052353 
	C426.116302,186.407562 423.005524,185.244888 419.846924,185.095871 
	C413.201782,184.782349 406.531128,184.947754 399.871796,185.009506 
	C365.947845,185.324020 332.023682,185.622879 298.100616,186.018738 
	C277.329102,186.261108 256.556854,186.553284 235.789749,187.031921 
	C212.560471,187.567307 189.336761,188.342987 166.110382,189.005798 
	C154.164566,189.346710 142.217682,189.650894 130.272308,190.006317 
	C119.990425,190.312225 109.710762,190.695648 99.428146,190.971436 
	C97.799072,191.015121 96.159599,190.671356 94.356644,189.898163 
	C94.444885,188.509689 94.701416,187.729813 94.957947,186.949921 
	C96.002327,185.641891 97.046692,184.333847 98.406296,182.964691 
z"/>
<path fill="#A9A9A9" opacity="1.000000" stroke="none" 
	d="
M430.137878,350.555847 
	C427.349854,355.387543 422.631561,354.369293 418.593750,353.861969 
	C408.461792,352.588959 398.343689,351.009735 388.336365,348.979797 
	C363.223877,343.885925 338.236053,338.159729 313.072754,333.342621 
	C302.720276,331.360809 292.064606,330.774597 281.512238,330.078064 
	C270.918488,329.378815 260.214722,328.423248 249.678253,329.198303 
	C230.573822,330.603607 211.455963,332.558929 192.536255,335.516479 
	C176.715851,337.989532 161.226624,342.509186 145.485779,345.585358 
	C132.410568,348.140625 119.207626,350.090668 106.012337,351.964203 
	C98.670601,353.006622 91.228828,353.344421 83.355515,353.999847 
	C81.970406,351.575592 81.061905,349.151215 80.155716,346.366425 
	C90.930138,347.129547 101.485817,345.160309 112.000183,343.428619 
	C129.761993,340.503265 147.448120,337.119751 165.171585,333.959808 
	C179.654648,331.377655 194.113678,328.635284 208.646149,326.365906 
	C216.478409,325.142853 224.427811,324.470245 232.350616,324.073120 
	C244.292526,323.474640 256.300537,322.544556 268.201935,323.193848 
	C284.194550,324.066376 300.165741,325.916138 316.047424,328.073364 
	C332.089447,330.252350 348.036163,333.178131 363.977966,336.037018 
	C379.586151,338.836029 395.108795,342.120026 410.739441,344.776886 
	C413.078339,345.174438 415.802399,343.306396 418.624664,342.265015 
	C422.582001,344.785828 426.262970,347.528137 430.137878,350.555847 
z"/>
<path fill="#DEDEDE" opacity="1.000000" stroke="none" 
	d="
M415.313995,165.519165 
	C398.469513,166.240662 381.514465,166.688293 364.556763,166.984070 
	C341.600464,167.384476 318.641571,167.632828 295.684906,168.014282 
	C279.392853,168.284988 263.102264,168.650269 246.811707,169.004532 
	C216.729324,169.658661 186.647217,170.326584 156.565430,171.007294 
	C142.940430,171.315582 129.317032,171.697952 115.691292,171.964264 
	C113.914909,171.998993 112.128868,171.540146 110.080391,170.956543 
	C111.964752,168.730927 114.116028,166.858658 116.671906,165.259247 
	C119.806366,165.689423 122.539581,166.025452 125.265526,165.974213 
	C139.680145,165.703323 154.091492,165.240814 168.506653,165.020828 
	C195.048050,164.615768 221.590805,164.228622 248.134277,164.099243 
	C252.761292,164.076691 254.671295,162.658234 253.997116,158.081299 
	C259.334137,158.339188 264.671173,158.597092 270.556671,159.217468 
	C272.396027,160.053253 273.678741,160.907669 274.979156,160.935562 
	C281.537415,161.076263 288.101227,161.075912 294.661316,160.988983 
	C317.214417,160.690155 339.767731,160.384964 362.319092,159.980621 
	C374.739166,159.757919 387.158875,159.409378 399.568207,158.873383 
	C400.750305,158.822296 401.857056,157.026917 402.998779,156.041336 
	C407.066589,159.086761 411.134430,162.132202 415.313995,165.519165 
z"/>
<path fill="#BBBBBB" opacity="1.000000" stroke="none" 
	d="
M434.736389,390.717133 
	C420.952942,388.091583 407.264282,385.701263 393.853363,382.236053 
	C382.954285,379.419891 372.446777,375.123535 361.661194,371.825043 
	C344.549591,366.591888 327.482086,361.120239 310.139679,356.771362 
	C299.777191,354.172852 288.929749,353.497192 278.292603,352.012177 
	C275.182770,351.578064 272.053009,351.133942 268.921417,351.032288 
	C241.356949,350.137634 214.311447,353.461304 187.931320,361.566010 
	C171.295258,366.677094 154.781754,372.185699 138.178375,377.404938 
	C127.111931,380.883698 116.006973,384.246216 104.863853,387.469269 
	C102.688354,388.098511 100.257957,387.846558 97.505936,388.001678 
	C96.016701,385.960052 94.966667,383.917786 94.129456,381.250061 
	C95.945786,380.682770 97.629578,381.089935 99.139786,380.742523 
	C108.956711,378.484161 118.817627,376.351013 128.504868,373.613281 
	C138.549805,370.774445 148.335815,367.021027 158.377151,364.167511 
	C172.227493,360.231506 186.106445,356.280487 200.168671,353.240295 
	C212.736679,350.523163 225.509888,348.382507 238.304611,347.201874 
	C248.952362,346.219330 259.783295,346.585846 270.495483,347.115173 
	C281.377869,347.652985 292.458923,348.034851 303.019073,350.412415 
	C323.975494,355.130554 344.641449,361.144287 365.412567,366.678467 
	C382.993561,371.362671 400.422394,376.742035 418.193146,380.523285 
	C424.508850,381.867157 430.888794,386.271637 437.920380,383.001465 
	C436.930634,385.496918 435.940918,387.992340 434.736389,390.717133 
z"/>
<path fill="#B6B6B6" opacity="1.000000" stroke="none" 
	d="
M438.092529,382.688721 
	C430.888794,386.271637 424.508850,381.867157 418.193146,380.523285 
	C400.422394,376.742035 382.993561,371.362671 365.412567,366.678467 
	C344.641449,361.144287 323.975494,355.130554 303.019073,350.412415 
	C292.458923,348.034851 281.377869,347.652985 270.495483,347.115173 
	C259.783295,346.585846 248.952362,346.219330 238.304611,347.201874 
	C225.509888,348.382507 212.736679,350.523163 200.168671,353.240295 
	C186.106445,356.280487 172.227493,360.231506 158.377151,364.167511 
	C148.335815,367.021027 138.549805,370.774445 128.504868,373.613281 
	C118.817627,376.351013 108.956711,378.484161 99.139786,380.742523 
	C97.629578,381.089935 95.945786,380.682770 94.124588,380.900330 
	C92.866600,379.060669 91.826294,376.945282 90.721703,374.471375 
	C102.143845,371.900818 113.726700,370.095154 125.098114,367.398071 
	C155.534271,360.179169 185.666809,351.474426 216.343506,345.554718 
	C233.916306,342.163757 252.339539,341.905151 270.335602,342.292847 
	C294.878113,342.821533 318.925751,348.002960 342.626587,354.383392 
	C361.968872,359.590485 381.210297,365.178162 400.594147,370.221619 
	C407.599060,372.044220 414.867798,372.913208 422.053406,373.962250 
	C428.087341,374.843140 434.175354,375.353455 440.715515,376.047394 
	C440.215973,378.169952 439.240326,380.272949 438.092529,382.688721 
z"/>
<path fill="#E2E2E2" opacity="1.000000" stroke="none" 
	d="
M402.677917,155.904480 
	C401.857056,157.026917 400.750305,158.822296 399.568207,158.873383 
	C387.158875,159.409378 374.739166,159.757919 362.319092,159.980621 
	C339.767731,160.384964 317.214417,160.690155 294.661316,160.988983 
	C288.101227,161.075912 281.537415,161.076263 274.979156,160.935562 
	C273.678741,160.907669 272.396027,160.053253 271.009003,159.172867 
	C294.115631,154.339706 314.912720,141.578918 338.835388,139.471390 
	C356.843781,137.884872 373.948822,140.614014 390.189117,148.429169 
	C394.438263,150.473953 398.311279,153.300262 402.677917,155.904480 
z"/>
<path fill="#DEDEDE" opacity="1.000000" stroke="none" 
	d="
M397.159760,445.054382 
	C395.033905,447.710541 392.908051,450.366730 390.278778,452.857758 
	C387.052429,451.136658 384.301697,449.627075 381.612030,448.015594 
	C374.797333,443.932617 367.999725,439.820740 361.213715,435.690186 
	C344.257904,425.369446 327.919281,413.815613 310.221558,404.983734 
	C283.061249,391.429688 254.020706,390.475433 224.891602,398.108429 
	C199.383911,404.792389 178.380661,420.242218 156.844101,434.570892 
	C150.122849,439.042664 142.972992,442.870239 136.019348,446.992706 
	C133.737457,444.540955 131.455582,442.089172 129.625900,439.434998 
	C133.560730,438.147980 137.382416,437.654053 140.470047,435.881500 
	C158.305695,425.642090 175.605057,414.412842 193.776031,404.826691 
	C219.567566,391.220276 247.029022,385.681671 276.411865,389.795624 
	C295.329865,392.444336 312.950928,398.518280 329.441254,407.495636 
	C345.895630,416.453430 361.384979,427.166901 377.592407,436.604004 
	C383.688263,440.153412 390.612946,442.279449 397.159760,445.054382 
z"/>
<path fill="#E2E2E2" opacity="1.000000" stroke="none" 
	d="
M136.122681,447.308289 
	C142.972992,442.870239 150.122849,439.042664 156.844101,434.570892 
	C178.380661,420.242218 199.383911,404.792389 224.891602,398.108429 
	C254.020706,390.475433 283.061249,391.429688 310.221558,404.983734 
	C327.919281,413.815613 344.257904,425.369446 361.213715,435.690186 
	C367.999725,439.820740 374.797333,443.932617 381.612030,448.015594 
	C384.301697,449.627075 387.052429,451.136658 389.960205,453.000702 
	C388.396606,454.842834 386.648132,456.376862 384.583374,458.002441 
	C376.818268,453.871246 368.935364,450.256317 362.005585,445.306885 
	C344.313995,432.671204 327.341766,418.956360 307.439789,409.770416 
	C285.436737,399.614746 262.486450,396.585297 238.485733,400.617126 
	C216.048569,404.386261 197.100403,415.569763 178.719406,427.943054 
	C169.239700,434.324341 160.365295,441.598602 151.058319,448.246674 
	C148.420746,450.130707 145.222977,451.230530 142.066895,452.998840 
	C139.976456,451.413086 138.101227,449.518494 136.122681,447.308289 
z"/>
<path fill="#DADADA" opacity="1.000000" stroke="none" 
	d="
M397.492767,444.978302 
	C390.612946,442.279449 383.688263,440.153412 377.592407,436.604004 
	C361.384979,427.166901 345.895630,416.453430 329.441254,407.495636 
	C312.950928,398.518280 295.329865,392.444336 276.411865,389.795624 
	C247.029022,385.681671 219.567566,391.220276 193.776031,404.826691 
	C175.605057,414.412842 158.305695,425.642090 140.470047,435.881500 
	C137.382416,437.654053 133.560730,438.147980 129.566956,438.949585 
	C127.975204,437.366058 126.894592,436.065460 125.721069,434.445435 
	C131.836319,431.481659 138.295212,429.299957 144.201843,426.099152 
	C157.619171,418.828217 170.600037,410.746704 184.065353,403.570831 
	C198.917160,395.656006 214.727478,389.728210 231.227173,386.673676 
	C243.820389,384.342346 256.636963,383.541351 269.726379,384.666809 
	C293.544037,386.714722 315.421295,394.270355 336.227539,405.234253 
	C354.425171,414.823517 372.079254,425.439789 390.116608,435.341614 
	C393.499817,437.198883 397.558380,437.825867 401.723877,439.035736 
	C400.703583,441.001343 399.264679,442.951782 397.492767,444.978302 
z"/>
<path fill="#E6E6E6" opacity="1.000000" stroke="none" 
	d="
M121.556755,160.815491 
	C148.518158,140.146545 178.299713,133.767395 211.063583,143.570175 
	C220.105484,146.275467 228.879517,149.876068 237.775635,153.760895 
	C236.095490,155.303452 234.441864,156.826569 232.732727,156.891663 
	C218.962448,157.416138 205.181931,157.674240 191.404144,157.998093 
	C168.105789,158.545731 144.696793,156.343323 121.556755,160.815491 
z"/>
<path fill="#E2E2E2" opacity="1.000000" stroke="none" 
	d="
M121.247993,160.869537 
	C144.696793,156.343323 168.105789,158.545731 191.404144,157.998093 
	C205.181931,157.674240 218.962448,157.416138 232.732727,156.891663 
	C234.441864,156.826569 236.095490,155.303452 237.945786,154.100739 
	C238.539429,153.808731 238.962097,153.871948 239.852478,154.217300 
	C240.640167,154.632584 240.960175,154.765717 241.280167,154.898865 
	C245.310226,155.827103 249.340302,156.755356 253.683746,157.882446 
	C254.671295,162.658234 252.761292,164.076691 248.134277,164.099243 
	C221.590805,164.228622 195.048050,164.615768 168.506653,165.020828 
	C154.091492,165.240814 139.680145,165.703323 125.265526,165.974213 
	C122.539581,166.025452 119.806366,165.689423 116.988922,165.139191 
	C118.247299,163.472046 119.593262,162.197815 121.247993,160.869537 
z"/>
<path fill="#E6E6E6" opacity="1.000000" stroke="none" 
	d="
M296.823944,50.541534 
	C309.541229,41.743309 323.706818,37.005821 340.005768,35.010754 
	C340.005768,40.997448 340.005768,46.539425 339.431244,52.534176 
	C326.658600,53.324059 314.460327,53.654354 302.262543,54.003689 
	C299.645020,54.078651 297.144379,54.041733 296.823944,50.541534 
z"/>
<path fill="#C0C0C0" opacity="1.000000" stroke="none" 
	d="
M335.377228,71.220993 
	C334.944672,73.089622 334.512085,74.958244 333.255310,76.949501 
	C319.484863,77.385506 306.534760,77.603348 293.597626,78.136337 
	C292.027130,78.201035 290.526550,79.963684 288.599243,80.905426 
	C281.133514,77.989037 274.112915,79.834297 267.047363,81.056198 
	C267.008667,81.014290 266.925018,80.936668 266.975433,80.591476 
	C268.854645,77.488121 270.683441,74.729965 272.948792,71.973709 
	C291.795013,71.322510 310.203247,70.620293 328.616211,70.079964 
	C330.856812,70.014214 333.122925,70.819427 335.377228,71.220993 
z"/>
<path fill="#CECECE" opacity="1.000000" stroke="none" 
	d="
M335.744995,71.189568 
	C333.122925,70.819427 330.856812,70.014214 328.616211,70.079964 
	C310.203247,70.620293 291.795013,71.322510 272.933167,71.775864 
	C272.481018,71.576103 272.203369,71.292526 272.203369,71.292526 
	C272.385742,70.986763 272.568085,70.681007 273.330078,70.249756 
	C275.863708,68.419815 277.817719,66.715363 280.254700,65.008209 
	C299.840637,64.671127 318.943604,64.336739 338.046570,64.002342 
	C337.401978,66.387604 336.757385,68.772873 335.744995,71.189568 
z"/>
<path fill="#A3A3A3" opacity="1.000000" stroke="none" 
	d="
M78.885422,278.976379 
	C75.844002,280.308563 72.802574,281.640717 69.390038,282.984253 
	C68.944618,277.301605 68.870300,271.607574 69.151978,265.323059 
	C69.953148,264.141144 70.398323,263.549683 71.325035,262.973694 
	C76.408302,262.687988 81.026924,261.990234 85.607529,262.185272 
	C91.446320,262.433838 97.254379,263.404266 102.853867,264.326904 
	C100.451271,265.717621 98.184891,266.707214 96.106087,267.998749 
	C90.324173,271.590851 84.620186,275.308380 78.885422,278.976379 
z"/>
<path fill="#A9A9A9" opacity="1.000000" stroke="none" 
	d="
M254.088531,100.010155 
	C254.516739,98.790474 254.944946,97.570793 256.005493,96.310959 
	C258.920258,96.543274 261.232391,96.666046 263.480469,97.111816 
	C282.201233,100.823883 301.121796,102.178909 320.174133,102.051849 
	C318.702698,104.349335 317.231232,106.646820 315.177917,108.773026 
	C309.828552,108.357460 304.996124,108.527672 300.305481,107.792892 
	C284.872162,105.375298 269.490204,102.629738 254.088531,100.010155 
z"/>
<path fill="#A3A3A3" opacity="1.000000" stroke="none" 
	d="
M320.483765,101.947205 
	C301.121796,102.178909 282.201233,100.823883 263.480469,97.111816 
	C261.232391,96.666046 258.920258,96.543274 256.257507,96.104691 
	C256.318573,94.710068 256.759918,93.481544 257.831818,92.222549 
	C260.152161,92.791565 261.819153,93.832779 263.535370,93.921425 
	C278.811188,94.710503 294.094421,95.365822 309.379730,95.948219 
	C310.911865,96.006599 312.472351,95.321487 314.424652,94.985764 
	C317.856628,95.648033 320.883667,96.305969 323.910675,96.963898 
	C322.871582,98.590118 321.832489,100.216339 320.483765,101.947205 
z"/>
<path fill="#B6B6B6" opacity="1.000000" stroke="none" 
	d="
M253.873444,100.250000 
	C269.490204,102.629738 284.872162,105.375298 300.305481,107.792892 
	C304.996124,108.527672 309.828552,108.357460 314.876556,108.935349 
	C313.864990,110.831841 312.572906,112.394737 310.493774,114.025558 
	C305.737518,113.872643 301.687408,114.081963 297.813599,113.353668 
	C283.865234,110.731316 269.969482,107.825417 256.077209,104.915054 
	C254.894287,104.667236 253.884460,103.593208 252.794235,102.903000 
	C253.082275,102.098618 253.370316,101.294235 253.873444,100.250000 
z"/>
<path fill="#DEDEDE" opacity="1.000000" stroke="none" 
	d="
M296.486694,50.655853 
	C297.144379,54.041733 299.645020,54.078651 302.262543,54.003689 
	C314.460327,53.654354 326.658600,53.324059 339.310059,52.987785 
	C339.620056,54.766140 339.476715,56.543663 338.690186,58.658539 
	C322.795135,59.330482 307.544067,59.718910 292.290558,59.940830 
	C290.038361,59.973595 287.774658,59.218334 285.516296,58.827667 
	C289.060669,56.141838 292.605042,53.456005 296.486694,50.655853 
z"/>
<path fill="#D4D4D4" opacity="1.000000" stroke="none" 
	d="
M285.200745,58.875404 
	C287.774658,59.218334 290.038361,59.973595 292.290558,59.940830 
	C307.544067,59.718910 322.795135,59.330482 338.514465,58.997391 
	C338.808502,60.460926 338.635101,61.922966 338.254150,63.693676 
	C318.943604,64.336739 299.840637,64.671127 280.353394,64.702896 
	C280.008270,63.983704 280.047394,63.567127 280.086548,63.150543 
	C281.686096,61.741409 283.285675,60.332275 285.200745,58.875404 
z"/>
<path fill="#B1B1B1" opacity="1.000000" stroke="none" 
	d="
M324.184967,96.763336 
	C320.883667,96.305969 317.856628,95.648033 314.217651,94.717606 
	C310.755524,92.956451 307.905426,91.467796 304.860687,89.728867 
	C303.439087,88.363716 302.212097,87.248840 301.207886,85.816254 
	C302.632996,85.008057 303.818848,84.141136 305.040466,84.087326 
	C313.910187,83.696648 322.787170,83.469872 331.661835,83.191254 
	C329.260956,87.648422 326.860107,92.105591 324.184967,96.763336 
z"/>
<path fill="#C0C0C0" opacity="1.000000" stroke="none" 
	d="
M252.506836,103.075943 
	C253.884460,103.593208 254.894287,104.667236 256.077209,104.915054 
	C269.969482,107.825417 283.865234,110.731316 297.813599,113.353668 
	C301.687408,114.081963 305.737518,113.872643 310.220947,114.148254 
	C308.844116,116.104950 306.953094,118.006866 304.290680,119.985550 
	C297.978729,119.180099 292.324432,118.733002 286.922272,117.321152 
	C277.002228,114.728546 267.214172,111.621056 257.411041,108.598671 
	C255.429703,107.987808 253.625488,106.802460 251.739624,105.881981 
	C251.899551,105.004280 252.059479,104.126579 252.506836,103.075943 
z"/>
<path fill="#F9F9F9" opacity="1.000000" stroke="none" 
	d="
M270.980713,138.816391 
	C263.645081,140.231293 256.309448,141.646194 248.053055,143.238693 
	C247.656845,136.880905 247.345581,131.886139 247.554718,126.413116 
	C250.435043,126.155899 253.319107,125.588188 255.058014,126.743729 
	C260.594757,130.423050 265.705444,134.743591 270.980713,138.816391 
z"/>
<path fill="#BBBBBB" opacity="1.000000" stroke="none" 
	d="
M331.880920,82.913033 
	C322.787170,83.469872 313.910187,83.696648 305.040466,84.087326 
	C303.818848,84.141136 302.632996,85.008057 300.849121,85.735611 
	C298.860291,85.633118 297.452942,85.293549 295.837006,84.683441 
	C293.416809,83.255074 291.205200,82.097237 288.993591,80.939400 
	C290.526550,79.963684 292.027130,78.201035 293.597626,78.136337 
	C306.534760,77.603348 319.484863,77.385506 332.926697,77.113968 
	C332.981598,78.982147 332.540802,80.808479 331.880920,82.913033 
z"/>
<path fill="#9D9D9D" opacity="1.000000" stroke="none" 
	d="
M305.055298,89.979141 
	C307.905426,91.467796 310.755524,92.956451 313.812683,94.713264 
	C312.472351,95.321487 310.911865,96.006599 309.379730,95.948219 
	C294.094421,95.365822 278.811188,94.710503 263.535370,93.921425 
	C261.819153,93.832779 260.152161,92.791565 258.097412,92.029274 
	C258.244873,90.656952 258.757263,89.447441 259.911316,88.260483 
	C262.052734,88.855858 263.534546,89.869537 265.055054,89.931282 
	C276.455933,90.394180 287.863342,90.724052 299.271606,90.949524 
	C301.192352,90.987488 303.127045,90.320450 305.055298,89.979141 
z"/>
<path fill="#E6E6E6" opacity="1.000000" stroke="none" 
	d="
M271.346527,138.834656 
	C265.705444,134.743591 260.594757,130.423050 255.058014,126.743729 
	C253.319107,125.588188 250.435043,126.155899 247.726746,125.985809 
	C247.725021,123.538193 248.071686,121.039619 248.941803,118.439545 
	C251.534027,119.212486 253.527649,120.430336 255.684494,120.902321 
	C265.353607,123.018227 272.399078,129.079163 278.972046,135.926315 
	C276.552155,136.901855 274.132233,137.877380 271.346527,138.834656 
z"/>
<path fill="#DEDEDE" opacity="1.000000" stroke="none" 
	d="
M279.327637,135.915497 
	C272.399078,129.079163 265.353607,123.018227 255.684494,120.902321 
	C253.527649,120.430336 251.534027,119.212486 249.156769,118.131073 
	C248.886871,117.333237 248.925461,116.742371 249.595108,115.991898 
	C253.488342,116.177650 257.192017,115.647102 259.932190,117.028160 
	C269.149353,121.673683 278.023499,126.999794 287.028870,132.065506 
	C284.580322,133.345230 282.131744,134.624969 279.327637,135.915497 
z"/>
<path fill="#8B8B8B" opacity="1.000000" stroke="none" 
	d="
M288.599243,80.905434 
	C291.205200,82.097237 293.416809,83.255074 295.539978,84.981918 
	C284.148865,86.632919 272.863434,86.884247 261.625336,84.850143 
	C264.922577,80.309601 268.219818,75.769058 271.860199,71.260521 
	C272.203369,71.292526 272.481018,71.576103 272.496613,71.773956 
	C270.683441,74.729965 268.854645,77.488121 266.822937,80.668991 
	C266.582550,81.210236 266.545105,81.328773 266.507629,81.447319 
	C266.700439,81.330917 266.893250,81.214523 267.086060,81.098114 
	C274.112915,79.834297 281.133514,77.989037 288.599243,80.905434 
z"/>
<path fill="#D4D4D4" opacity="1.000000" stroke="none" 
	d="
M287.381073,132.027466 
	C278.023499,126.999794 269.149353,121.673683 259.932190,117.028160 
	C257.192017,115.647102 253.488342,116.177650 249.731659,115.722610 
	C249.444611,114.487373 249.652039,113.361816 250.487610,112.041824 
	C260.629181,113.469231 269.633026,116.345688 278.251099,120.918686 
	C283.569550,123.740776 289.712280,125.009361 295.484955,126.975418 
	C292.901062,128.646759 290.317169,130.318100 287.381073,132.027466 
z"/>
<path fill="#959595" opacity="1.000000" stroke="none" 
	d="
M261.390381,85.036507 
	C272.863434,86.884247 284.148865,86.632919 295.748535,85.252457 
	C297.452942,85.293549 298.860291,85.633118 300.626404,86.053329 
	C302.212097,87.248840 303.439087,88.363716 304.860687,89.728867 
	C303.127045,90.320450 301.192352,90.987488 299.271606,90.949524 
	C287.863342,90.724052 276.455933,90.394180 265.055054,89.931282 
	C263.534546,89.869537 262.052734,88.855858 260.198792,88.100647 
	C260.281555,87.019798 260.718475,86.121338 261.390381,85.036507 
z"/>
<path fill="#C8C8C8" opacity="1.000000" stroke="none" 
	d="
M251.461609,106.079895 
	C253.625488,106.802460 255.429703,107.987808 257.411041,108.598671 
	C267.214172,111.621056 277.002228,114.728546 286.922272,117.321152 
	C292.324432,118.733002 297.978729,119.180099 303.989502,120.094879 
	C302.809082,121.544533 301.158386,122.961624 298.781311,124.295784 
	C294.858337,123.364815 291.559998,122.785744 288.483124,121.621506 
	C276.122589,116.944542 263.934570,111.778992 250.943909,108.978683 
	C251.023804,108.078392 251.103699,107.178108 251.461609,106.079895 
z"/>
<path fill="#7F7F7F" opacity="1.000000" stroke="none" 
	d="
M70.843506,262.958252 
	C70.398323,263.549683 69.953148,264.141144 69.260559,264.865051 
	C70.055115,255.213531 70.520134,245.324554 72.277206,235.670746 
	C74.776894,221.936722 79.570061,208.903519 87.605728,197.016663 
	C87.281311,198.707611 86.631577,200.483704 85.882401,202.607880 
	C84.179932,206.336960 82.576889,209.717957 80.933472,213.456924 
	C79.565697,217.569046 78.238297,221.323196 76.651001,225.755432 
	C75.528564,230.278030 74.666031,234.122513 73.562355,238.240082 
	C73.150703,239.988220 72.980186,241.463272 72.553955,243.251465 
	C72.132919,246.367844 71.967613,249.171112 71.559402,252.294067 
	C71.158844,256.061920 71.001175,259.510101 70.843506,262.958252 
z"/>
<path fill="#CECECE" opacity="1.000000" stroke="none" 
	d="
M250.769196,109.146996 
	C263.934570,111.778992 276.122589,116.944542 288.483124,121.621506 
	C291.559998,122.785744 294.858337,123.364815 298.486572,124.398544 
	C297.930786,125.251839 296.943237,125.919456 295.720337,126.781250 
	C289.712280,125.009361 283.569550,123.740776 278.251099,120.918686 
	C269.633026,116.345688 260.629181,113.469231 250.659958,111.738670 
	C250.334274,110.858406 250.464371,110.086853 250.769196,109.146996 
z"/>
<path fill="#8B8B8B" opacity="1.000000" stroke="none" 
	d="
M279.745544,63.131413 
	C280.047394,63.567127 280.008270,63.983704 279.870422,64.705597 
	C277.817719,66.715363 275.863708,68.419815 273.574524,70.131630 
	C275.294464,67.796753 277.349487,65.454514 279.745544,63.131413 
z"/>
<path fill="#7F7F7F" opacity="1.000000" stroke="none" 
	d="
M94.621338,186.985626 
	C94.701416,187.729813 94.444885,188.509689 94.072418,189.586426 
	C92.820496,191.190460 91.684517,192.497650 90.225082,193.862183 
	C91.362663,191.620117 92.823692,189.320724 94.621338,186.985626 
z"/>
<path fill="#7F7F7F" opacity="1.000000" stroke="none" 
	d="
M89.587288,193.991058 
	C89.467545,194.876312 89.027466,195.841431 88.255966,196.873352 
	C88.372017,195.983719 88.819481,195.027328 89.587288,193.991058 
z"/>
<path fill="#8B8B8B" opacity="1.000000" stroke="none" 
	d="
M401.630768,214.307251 
	C401.633850,213.611862 401.942841,212.812485 402.621979,212.004669 
	C402.640320,212.731888 402.288483,213.467560 401.630768,214.307251 
z"/>
<path fill="#E6E6E6" opacity="1.000000" stroke="none" 
	d="
M241.180130,154.607513 
	C240.960175,154.765717 240.640167,154.632584 240.165588,154.286026 
	C240.367355,154.153778 240.723724,154.234970 241.180130,154.607513 
z"/>
<path fill="#959595" opacity="1.000000" stroke="none" 
	d="
M70.135590,301.288940 
	C70.439392,301.160980 70.661873,301.369873 70.887299,301.878723 
	C70.686951,301.914154 70.408295,301.729828 70.135590,301.288940 
z"/>
<path fill="#B1B1B1" opacity="1.000000" stroke="none" 
	d="
M71.802299,251.974380 
	C71.967613,249.171112 72.132919,246.367844 73.030945,243.272461 
	C77.886276,242.655746 82.003807,242.153641 86.132317,242.035553 
	C111.534355,241.309052 136.937607,240.610489 162.343842,240.059921 
	C166.457535,239.970779 170.592529,240.992310 174.710236,240.937775 
	C186.165100,240.786072 197.615738,240.328445 209.068558,240.009262 
	C233.305984,239.333771 257.543793,238.671387 281.781311,237.999786 
	C293.567108,237.673218 305.352234,237.321518 317.138428,237.011154 
	C330.589386,236.656906 344.039734,236.237274 357.493164,236.032288 
	C367.985474,235.872406 378.482086,235.997360 388.976807,235.995728 
	C387.986542,239.730728 386.996277,243.465714 385.561462,247.539185 
	C383.164001,247.584900 381.189911,246.942596 379.261780,247.059387 
	C370.522461,247.588715 361.806335,248.584564 353.062683,248.940475 
	C339.466644,249.493927 325.856201,249.728821 312.249725,249.982742 
	C291.323090,250.373260 270.394287,250.644257 249.467407,251.021210 
	C246.165100,251.080673 242.864670,251.388626 239.569214,251.654129 
	C229.640396,252.453995 219.714462,253.289627 209.358887,254.111664 
	C207.120239,253.959106 205.308807,253.820221 203.500229,253.651108 
	C190.710571,252.455170 177.941376,250.835693 165.124039,250.224503 
	C158.461121,249.906769 151.713455,251.366379 144.918274,251.637726 
	C140.907013,250.501968 136.964447,249.035858 133.059097,249.129028 
	C118.554779,249.475006 104.062004,250.319412 89.566383,251.007782 
	C83.643074,251.289078 77.723549,251.649796 71.802299,251.974380 
z"/>
<path fill="#BBBBBB" opacity="1.000000" stroke="none" 
	d="
M73.803497,237.967010 
	C74.666031,234.122513 75.528564,230.278030 76.632248,226.147552 
	C78.417992,226.240814 79.967079,226.966690 81.506516,226.946762 
	C101.276329,226.691055 121.045547,226.368362 140.813278,225.979645 
	C153.924530,225.721817 167.033249,225.334106 180.142929,224.998444 
	C193.086365,224.667038 206.030060,224.344452 218.972778,223.987213 
	C230.085556,223.680511 241.195389,223.244293 252.309631,223.018295 
	C272.077057,222.616318 291.847321,222.355789 311.615479,221.987106 
	C327.223175,221.696014 342.830505,221.372849 358.436035,220.984711 
	C368.717682,220.728989 378.994904,220.294922 389.276489,220.035385 
	C391.057556,219.990433 392.850525,220.417877 394.936279,220.976501 
	C393.900452,224.337601 392.566345,227.349335 390.659973,230.666748 
	C379.518280,230.976028 368.942627,230.750046 358.380768,231.034409 
	C340.311432,231.520874 322.253662,232.427567 304.185364,232.968506 
	C288.247803,233.445663 272.303223,233.703201 256.360443,233.987488 
	C235.424377,234.360809 214.488113,234.790649 193.550003,234.963440 
	C173.405334,235.129684 153.255203,234.792831 133.113541,235.089478 
	C123.532669,235.230606 113.973335,236.479782 104.390747,236.954956 
	C94.203316,237.460144 83.999924,237.643265 73.803497,237.967010 
z"/>
<path fill="#7F7F7F" opacity="1.000000" stroke="none" 
	d="
M145.004074,252.023102 
	C151.713455,251.366379 158.461121,249.906769 165.124039,250.224503 
	C177.941376,250.835693 190.710571,252.455170 203.500229,253.651108 
	C205.308807,253.820221 207.120239,253.959106 209.487717,254.464935 
	C216.363617,256.545227 222.682144,258.272614 229.093140,260.213562 
	C229.370224,260.709930 229.631332,260.854858 230.339813,260.885345 
	C232.139084,261.209900 233.567490,261.510986 235.322021,261.991943 
	C242.120407,264.747772 248.592636,267.323669 255.064880,269.899597 
	C253.786560,270.599365 252.535477,271.852173 251.225861,271.916656 
	C228.554810,273.033356 205.876068,273.992859 183.200058,275.010132 
	C168.803070,275.655975 154.258057,275.271729 140.047729,277.263580 
	C119.955864,280.079742 99.900070,278.251404 79.366798,278.984924 
	C84.620186,275.308380 90.324173,271.590851 96.106087,267.998749 
	C98.184891,266.707214 100.451271,265.717621 103.225739,264.297424 
	C107.376099,262.656738 110.854286,261.025269 114.504448,260.015289 
	C124.632690,257.212830 134.832535,254.669098 145.004074,252.023102 
z"/>
<path fill="#B6B6B6" opacity="1.000000" stroke="none" 
	d="
M73.562355,238.240082 
	C83.999924,237.643265 94.203316,237.460144 104.390747,236.954956 
	C113.973335,236.479782 123.532669,235.230606 133.113541,235.089478 
	C153.255203,234.792831 173.405334,235.129684 193.550003,234.963440 
	C214.488113,234.790649 235.424377,234.360809 256.360443,233.987488 
	C272.303223,233.703201 288.247803,233.445663 304.185364,232.968506 
	C322.253662,232.427567 340.311432,231.520874 358.380768,231.034409 
	C368.942627,230.750046 379.518280,230.976028 390.501892,230.980896 
	C390.367340,232.453842 389.818604,233.918335 389.123352,235.689270 
	C378.482086,235.997360 367.985474,235.872406 357.493164,236.032288 
	C344.039734,236.237274 330.589386,236.656906 317.138428,237.011154 
	C305.352234,237.321518 293.567108,237.673218 281.781311,237.999786 
	C257.543793,238.671387 233.305984,239.333771 209.068558,240.009262 
	C197.615738,240.328445 186.165100,240.786072 174.710236,240.937775 
	C170.592529,240.992310 166.457535,239.970779 162.343842,240.059921 
	C136.937607,240.610489 111.534355,241.309052 86.132317,242.035553 
	C82.003807,242.153641 77.886276,242.655746 73.286674,242.959351 
	C72.980186,241.463272 73.150703,239.988220 73.562355,238.240082 
z"/>
<path fill="#9D9D9D" opacity="1.000000" stroke="none" 
	d="
M383.981262,271.993591 
	C384.480225,277.076843 384.979218,282.160095 385.529297,287.763672 
	C351.892090,295.598022 318.953949,292.565033 286.424255,280.953735 
	C291.023224,279.559143 295.643066,278.460083 300.322327,278.065338 
	C311.034637,277.161530 321.989563,277.696503 332.457153,275.654297 
	C349.570465,272.315552 366.847137,273.618561 383.981262,271.993591 
z"/>
<path fill="#A3A3A3" opacity="1.000000" stroke="none" 
	d="
M383.987488,271.540039 
	C366.847137,273.618561 349.570465,272.315552 332.457153,275.654297 
	C321.989563,277.696503 311.034637,277.161530 300.322327,278.065338 
	C295.643066,278.460083 291.023224,279.559143 286.183777,280.679413 
	C277.799927,277.871887 269.608673,274.723297 261.437317,271.003296 
	C264.997498,269.891388 268.821655,270.029297 272.026947,268.688110 
	C283.426208,263.918304 295.453430,266.361298 307.135223,265.080200 
	C311.897217,264.557953 316.773712,265.170898 321.568756,264.840759 
	C333.414490,264.025146 345.229370,262.689545 357.083313,262.089417 
	C366.030212,261.636444 375.018311,261.997559 383.988068,261.996338 
	C383.989960,265.026398 383.991852,268.056427 383.987488,271.540039 
z"/>
<path fill="#A9A9A9" opacity="1.000000" stroke="none" 
	d="
M384.001190,261.644043 
	C375.018311,261.997559 366.030212,261.636444 357.083313,262.089417 
	C345.229370,262.689545 333.414490,264.025146 321.568756,264.840759 
	C316.773712,265.170898 311.897217,264.557953 307.135223,265.080200 
	C295.453430,266.361298 283.426208,263.918304 272.026947,268.688110 
	C268.821655,270.029297 264.997498,269.891388 261.217651,270.737030 
	C259.258850,270.676910 257.539551,270.311676 255.442566,269.923035 
	C248.592636,267.323669 242.120407,264.747772 235.380295,261.643707 
	C237.886658,260.101562 241.000595,257.722260 243.375519,258.313171 
	C252.959534,260.697693 262.138947,259.728058 271.791779,258.342346 
	C286.460327,256.236572 301.386505,255.679642 316.228088,255.087891 
	C333.946747,254.381439 351.692871,254.384415 369.424377,253.965408 
	C374.609070,253.842896 379.784485,253.329300 384.964172,252.994965 
	C384.647552,255.760559 384.330933,258.526154 384.001190,261.644043 
z"/>
<path fill="#ACACAC" opacity="1.000000" stroke="none" 
	d="
M385.023010,252.632477 
	C379.784485,253.329300 374.609070,253.842896 369.424377,253.965408 
	C351.692871,254.384415 333.946747,254.381439 316.228088,255.087891 
	C301.386505,255.679642 286.460327,256.236572 271.791779,258.342346 
	C262.138947,259.728058 252.959534,260.697693 243.375519,258.313171 
	C241.000595,257.722260 237.886658,260.101562 235.054153,261.463806 
	C233.567490,261.510986 232.139084,261.209900 230.226257,260.695374 
	C229.541763,260.249115 229.294708,260.088440 229.000671,260.000000 
	C222.682144,258.272614 216.363617,256.545227 209.916260,254.464584 
	C219.714462,253.289627 229.640396,252.453995 239.569214,251.654129 
	C242.864670,251.388626 246.165100,251.080673 249.467407,251.021210 
	C270.394287,250.644257 291.323090,250.373260 312.249725,249.982742 
	C325.856201,249.728821 339.466644,249.493927 353.062683,248.940475 
	C361.806335,248.584564 370.522461,247.588715 379.261780,247.059387 
	C381.189911,246.942596 383.164001,247.584900 385.524658,247.930878 
	C385.648865,249.412720 385.365356,250.841354 385.023010,252.632477 
z"/>
<path fill="#ACACAC" opacity="1.000000" stroke="none" 
	d="
M144.918274,251.637726 
	C134.832535,254.669098 124.632690,257.212830 114.504448,260.015289 
	C110.854286,261.025269 107.376099,262.656738 103.447556,264.034058 
	C97.254379,263.404266 91.446320,262.433838 85.607529,262.185272 
	C81.026924,261.990234 76.408302,262.687988 71.325043,262.973694 
	C71.001175,259.510101 71.158844,256.061920 71.559402,252.294067 
	C77.723549,251.649796 83.643074,251.289078 89.566383,251.007782 
	C104.062004,250.319412 118.554779,249.475006 133.059097,249.129028 
	C136.964447,249.035858 140.907013,250.501968 144.918274,251.637726 
z"/>
<path fill="#C0C0C0" opacity="1.000000" stroke="none" 
	d="
M267.047363,81.056206 
	C266.893250,81.214523 266.700439,81.330917 266.507629,81.447319 
	C266.545105,81.328773 266.582550,81.210236 266.772522,81.014183 
	C266.925018,80.936668 267.008667,81.014290 267.047363,81.056206 
z"/>
<path fill="#A9A9A9" opacity="1.000000" stroke="none" 
	d="
M229.093140,260.213562 
	C229.294708,260.088440 229.541763,260.249115 229.855377,260.671936 
	C229.631332,260.854858 229.370224,260.709930 229.093140,260.213562 
z"/>
</svg>